<?xml version="1.0" encoding="UTF-8"?>
<!DOCTYPE svg PUBLIC "-//W3C//DTD SVG 1.1//EN" "http://www.w3.org/Graphics/SVG/1.1/DTD/svg11.dtd">
<!-- Creator: CorelDRAW -->
<svg xmlns="http://www.w3.org/2000/svg" xml:space="preserve" width="85.4912mm" height="12.053mm" version="1.1" style="shape-rendering:geometricPrecision; text-rendering:geometricPrecision; image-rendering:optimizeQuality; fill-rule:evenodd; clip-rule:evenodd"
viewBox="0 0 196.96 27.77"
 xmlns:xlink="http://www.w3.org/1999/xlink"
 xmlns:xodm="http://www.corel.com/coreldraw/odm/2003">
 <defs>
  <style type="text/css">
   <![CDATA[
    .fil1 {fill:#FECC00}
    .fil3 {fill:white}
    .fil0 {fill:white}
    .fil2 {fill:#1C1B17}
   ]]>
  </style>
 </defs>
 <g id="Слой_x0020_1">
  <metadata id="CorelCorpID_0Corel-Layer"/>
  <path class="fil0" d="M3.39 22.91l12.32 -16.09 -11.27 0 0 -2.09 15.4 0 -12.04 16.09 11.97 0 0 2.09 -16.38 0zm31.54 -7.02l8.03 0 -4.03 -8.05 -4 8.05zm-5.88 7.02l8.94 -18.18 1.88 0 9.04 18.18 -2.47 0 -2.48 -4.89 -10.08 0 -2.41 4.89 -2.43 0zm30.9 0l0 -18.18 2.1 0 7.38 11.13 7.41 -11.13 2.06 0 0 18.18 -2.23 0 0 -14.2 -7.24 10.76 -7.24 -10.76 0 14.2 -2.23 0zm61.67 -10.09l8.05 0c1.15,0 2.01,-0.25 2.6,-0.76 0.59,-0.5 0.89,-1.24 0.89,-2.22 0,-0.95 -0.29,-1.7 -0.89,-2.23 -0.59,-0.53 -1.42,-0.8 -2.49,-0.8l-8.17 0 0 6.01zm-2.27 10.09l0 -18.18 10.47 0c1.78,0 3.18,0.45 4.19,1.34 1.01,0.89 1.52,2.13 1.52,3.71 0,1.32 -0.4,2.44 -1.18,3.38 -0.8,0.94 -1.84,1.52 -3.14,1.75l4.56 8 -2.5 0 -4.56 -7.96 -7.08 0 0 7.96 -2.27 0zm36.67 -1.65c2.05,0 3.75,-0.7 5.09,-2.09 1.34,-1.39 2.01,-3.17 2.01,-5.31 0,-2.15 -0.67,-3.93 -2.01,-5.32 -1.34,-1.39 -3.04,-2.09 -5.1,-2.09 -2.05,0 -3.74,0.7 -5.09,2.1 -1.34,1.4 -2.01,3.17 -2.01,5.31 0,2.14 0.67,3.91 2.01,5.31 1.35,1.39 3.05,2.09 5.09,2.09zm-0.01 2.13c-2.74,0 -4.99,-0.9 -6.77,-2.69 -1.78,-1.79 -2.67,-4.07 -2.67,-6.83 0,-2.77 0.89,-5.05 2.68,-6.84 1.78,-1.79 4.03,-2.69 6.76,-2.69 2.73,0 4.99,0.9 6.79,2.7 1.79,1.8 2.69,4.08 2.69,6.83 0,2.76 -0.9,5.04 -2.68,6.83 -1.79,1.79 -4.06,2.69 -6.8,2.69zm28.48 -0.47l-1.42 0 -8.79 -18.18 2.46 0 7.04 14.57 7.04 -14.57 2.51 0 -8.84 18.18z"/>
  <rect class="fil1" x="92.11" y="1.48" width="19.42" height="24.81"/>
  <path class="fil2" d="M93.2 4.58l12.32 0c0.6,0 1.09,0.49 1.09,1.09l0 0c0,0.6 -0.49,1.09 -1.09,1.09l-12.32 0c-0.6,0 -1.09,-0.49 -1.09,-1.09l0 -0c0,-0.6 0.49,-1.09 1.09,-1.09z"/>
  <path class="fil2" d="M93.2 21.01l12.32 0c0.6,0 1.09,0.49 1.09,1.09l0 0c0,0.6 -0.49,1.09 -1.09,1.09l-12.32 0c-0.6,0 -1.09,-0.49 -1.09,-1.09l0 -0c0,-0.6 0.49,-1.09 1.09,-1.09z"/>
  <path class="fil2" d="M92.92 12.77l8 0c0.45,0 0.81,0.37 0.81,0.81l0 0c0,0.45 -0.37,0.81 -0.81,0.81l-8 0c-0.45,0 -0.81,-0.37 -0.81,-0.81l0 -0c0,-0.45 0.37,-0.81 0.81,-0.81z"/>
  <path class="fil3" d="M2.25 0l192.46 0c1.24,0 2.25,1.01 2.25,2.25l0 23.27c0,1.24 -1.01,2.25 -2.25,2.25l-192.46 0c-1.24,0 -2.25,-1.01 -2.25,-2.25l0 -23.27c0,-1.24 1.01,-2.25 2.25,-2.25zm0 1.48l192.46 0c0.42,0 0.77,0.35 0.77,0.77l0 23.27c0,0.42 -0.35,0.77 -0.77,0.77l-192.46 0c-0.42,0 -0.77,-0.35 -0.77,-0.77l0 -23.27c0,-0.42 0.35,-0.77 0.77,-0.77z"/>
 </g>
</svg>
